<?xml version="1.0" standalone="no"?>
<!DOCTYPE svg PUBLIC "-//W3C//DTD SVG 20010904//EN"
 "http://www.w3.org/TR/2001/REC-SVG-20010904/DTD/svg10.dtd">
<svg version="1.0" xmlns="http://www.w3.org/2000/svg"
 width="5133.000000pt" height="5133.000000pt" viewBox="0 0 5133.000000 5133.000000"
 preserveAspectRatio="xMidYMid meet">
<metadata>
Created by potrace 1.14, written by Peter Selinger 2001-2017
</metadata>
<g transform="translate(0.000000,5133.000000) scale(0.100000,-0.100000)"
fill="#000000" stroke="none">
<path d="M21215 51273 c-92 -195 -183 -474 -209 -643 -14 -90 -17 -226 -6
-307 23 -177 85 -318 262 -598 115 -182 192 -322 247 -450 43 -100 111 -312
111 -345 0 -22 -90 -84 -230 -158 -235 -125 -469 -206 -965 -332 -580 -148
-831 -236 -1167 -409 -164 -84 -391 -223 -466 -287 -10 -7 -46 -37 -82 -65
-36 -28 -67 -54 -70 -58 -3 -3 -26 -25 -52 -48 -48 -43 -135 -136 -197 -208
-90 -107 -198 -295 -246 -425 -34 -94 -20 -70 -156 -257 -63 -87 -118 -163
-122 -169 -4 -7 15 -6 56 3 34 7 80 15 102 18 22 3 47 8 55 10 8 2 31 7 50 10
19 3 85 14 145 25 126 22 135 24 270 45 55 9 112 18 128 20 135 23 315 46 462
60 299 29 770 39 1000 21 176 -14 307 -27 455 -46 120 -16 152 -20 180 -25 14
-3 41 -7 60 -10 145 -22 540 -113 741 -171 47 -14 95 -26 105 -28 10 -2 104
-27 208 -55 553 -151 945 -235 1201 -259 91 -8 318 -9 385 -2 42 5 54 0 145
-54 431 -255 696 -589 785 -986 30 -136 31 -147 35 -315 5 -220 -15 -375 -80
-635 -31 -123 -103 -356 -125 -405 -5 -11 -23 -58 -40 -105 -89 -236 -220
-523 -522 -1140 -267 -544 -389 -816 -467 -1040 -13 -36 -27 -74 -32 -85 -9
-20 -111 -368 -147 -500 l-19 -70 -99 1 c-105 1 -448 12 -574 19 -41 2 -147 7
-235 10 -88 3 -203 7 -255 10 -52 2 -162 7 -245 10 -236 9 -380 14 -510 20
-66 3 -181 7 -255 10 -147 6 -220 12 -320 25 -106 15 -223 39 -229 48 -3 4
-21 30 -40 57 -128 185 -416 549 -645 815 -508 592 -977 1045 -1323 1278 -55
37 -74 61 -174 209 -440 660 -826 1020 -1404 1310 -587 294 -1447 521 -2755
728 -14 2 -47 7 -75 11 -27 3 -52 7 -55 9 -3 2 -30 6 -60 10 -30 3 -80 10
-110 15 -55 9 -83 13 -175 25 -27 4 -61 9 -75 11 -14 2 -77 11 -140 19 -63 9
-129 17 -146 20 -17 2 -57 7 -89 11 -32 3 -66 7 -75 9 -8 2 -43 6 -75 10 -33
4 -71 8 -85 10 -14 2 -52 7 -85 10 -33 4 -71 8 -85 10 -14 2 -50 6 -80 10 -30
3 -71 8 -90 10 -19 2 -62 7 -95 10 -33 4 -71 8 -85 10 -42 6 -123 15 -170 20
-25 2 -137 13 -250 25 -113 11 -232 23 -265 26 -81 7 -154 14 -190 19 -16 2
-66 7 -110 10 -44 3 -98 8 -120 10 -22 2 -71 7 -110 10 -38 3 -88 8 -110 10
-22 3 -80 7 -130 10 -49 4 -108 8 -130 10 -22 2 -74 7 -115 10 -41 3 -97 8
-125 10 -69 6 -293 23 -390 30 -44 3 -109 7 -145 10 -159 12 -303 21 -445 30
-49 3 -115 8 -145 10 -30 2 -109 7 -175 10 -66 3 -140 8 -165 10 -25 2 -101 6
-170 10 -69 3 -150 8 -180 10 -30 3 -118 7 -195 10 -77 3 -165 8 -195 10 -30
2 -122 7 -205 10 -82 3 -177 8 -210 10 -33 2 -134 6 -225 10 -91 3 -205 8
-255 10 -49 2 -178 7 -285 10 -107 3 -229 8 -270 10 -41 2 -199 7 -350 10
-151 4 -322 9 -380 10 -322 11 -1480 21 -1883 16 l-98 -1 63 -92 c121 -178
192 -236 373 -309 126 -51 388 -122 605 -165 69 -13 314 -55 375 -64 39 -5 79
-12 90 -14 22 -4 28 -5 310 -41 110 -14 217 -27 238 -30 80 -10 204 -24 257
-30 30 -3 73 -8 95 -10 36 -4 258 -29 360 -40 22 -2 110 -11 195 -20 85 -9
173 -18 195 -20 77 -9 131 -15 185 -20 30 -3 71 -8 90 -10 19 -2 64 -7 100
-10 36 -3 76 -7 90 -10 14 -2 57 -7 95 -10 39 -3 86 -8 105 -10 19 -3 60 -7
90 -10 30 -3 73 -7 95 -10 54 -6 119 -13 185 -20 55 -6 106 -12 170 -20 19 -2
64 -7 100 -10 36 -3 72 -8 80 -10 8 -2 47 -7 85 -10 107 -11 124 -13 215 -24
47 -6 144 -18 215 -26 185 -22 205 -25 250 -31 22 -3 51 -7 65 -9 14 -2 43 -6
65 -9 22 -3 60 -8 85 -11 59 -7 228 -31 495 -70 62 -9 291 -45 310 -49 11 -2
45 -7 75 -12 30 -4 57 -8 60 -9 3 -1 39 -7 80 -14 149 -25 403 -73 570 -106
85 -17 232 -48 260 -55 19 -5 46 -11 60 -13 59 -11 410 -100 570 -146 468
-133 850 -284 1104 -437 49 -30 91 -54 93 -54 2 0 9 -5 16 -10 7 -6 21 -18 32
-26 18 -14 1 -15 -175 -9 -107 4 -208 8 -225 10 -16 2 -79 6 -140 10 -60 3
-126 8 -145 10 -55 5 -187 14 -285 20 -49 3 -112 8 -140 10 -261 23 -874 27
-1034 7 -118 -15 -243 -45 -271 -65 -18 -13 -17 -16 24 -100 24 -48 65 -119
91 -157 48 -71 184 -217 260 -279 110 -91 366 -240 510 -298 17 -7 52 -21 80
-33 128 -55 550 -180 690 -204 17 -3 41 -8 55 -11 109 -24 354 -67 515 -90 99
-14 267 -35 305 -39 25 -3 135 -14 245 -25 110 -11 238 -23 285 -26 47 -4 98
-8 115 -10 16 -2 68 -6 115 -10 47 -3 110 -7 140 -10 30 -3 87 -7 125 -10 105
-7 215 -15 265 -20 25 -2 81 -6 125 -9 44 -4 100 -9 125 -11 25 -2 79 -7 120
-10 170 -13 260 -23 360 -40 96 -16 179 -42 228 -73 70 -42 164 -149 218 -247
6 -11 20 -36 31 -55 48 -85 83 -149 83 -154 0 -2 -24 -3 -52 -1 -107 8 -277
24 -323 30 -16 2 -57 7 -90 10 -33 3 -94 10 -135 15 -41 6 -100 12 -130 15
-30 3 -71 7 -90 10 -45 6 -182 22 -240 29 -25 3 -83 10 -130 16 -47 5 -110 12
-140 15 -30 3 -73 8 -95 10 -22 3 -56 7 -75 10 -19 2 -64 7 -100 10 -36 3 -81
8 -100 10 -67 8 -135 15 -205 20 -38 4 -86 8 -105 10 -19 2 -75 7 -125 10 -49
4 -112 8 -140 11 -233 19 -691 25 -882 11 -216 -15 -473 -76 -473 -112 0 -28
104 -218 162 -296 266 -360 729 -617 1418 -789 139 -34 356 -80 450 -95 19 -3
58 -10 85 -15 28 -5 68 -12 90 -15 22 -3 54 -7 70 -10 80 -12 306 -42 380 -50
48 -4 82 -8 185 -19 127 -14 353 -35 440 -41 47 -4 103 -8 125 -10 22 -2 74
-7 115 -10 41 -3 91 -7 110 -10 19 -2 76 -7 125 -10 50 -3 106 -8 125 -10 19
-2 76 -7 125 -10 229 -15 265 -22 288 -52 71 -90 172 -198 377 -401 l145 -143
-70 6 c-38 3 -88 8 -110 10 -22 3 -96 10 -165 15 -156 14 -210 18 -280 25 -30
2 -84 7 -120 10 -36 4 -85 8 -110 10 -25 2 -79 7 -120 10 -41 3 -91 7 -110 10
-19 2 -66 7 -105 10 -38 3 -90 7 -115 10 -25 2 -76 7 -115 10 -38 3 -90 8
-115 10 -25 2 -101 9 -170 15 -69 6 -145 13 -170 15 -25 2 -76 7 -115 10 -38
3 -90 7 -115 10 -25 2 -76 7 -115 10 -38 3 -88 8 -110 10 -22 2 -71 6 -110 10
-38 3 -88 8 -110 10 -22 2 -78 7 -125 11 -47 3 -92 8 -100 9 -8 2 -60 6 -115
10 -55 4 -110 8 -123 10 -12 2 -64 7 -115 10 -50 4 -102 8 -114 10 -20 3 -22
0 -16 -28 23 -123 125 -354 213 -485 78 -117 216 -268 292 -320 13 -9 29 -22
37 -29 52 -51 282 -182 431 -246 131 -55 357 -131 456 -152 10 -2 66 -15 124
-29 58 -13 132 -29 165 -35 33 -6 69 -13 80 -15 69 -13 318 -51 410 -62 33 -3
67 -8 75 -9 8 -2 47 -6 85 -10 39 -4 81 -8 95 -10 14 -2 52 -7 85 -10 33 -3
76 -8 95 -10 19 -2 71 -7 115 -10 44 -4 91 -8 105 -10 28 -4 138 -15 305 -30
33 -3 98 -10 145 -15 47 -5 112 -12 145 -15 33 -3 78 -8 100 -10 22 -2 67 -7
100 -10 213 -21 341 -55 409 -109 91 -71 172 -246 184 -396 10 -129 9 -185 -3
-184 -5 1 -35 5 -65 8 -75 9 -419 53 -545 71 -16 2 -70 9 -120 15 -49 6 -97
13 -105 15 -8 2 -42 6 -75 10 -33 3 -89 10 -125 15 -36 5 -89 12 -119 15 -30
4 -62 8 -71 10 -9 2 -41 6 -71 10 -30 3 -65 8 -79 10 -14 2 -50 7 -80 10 -30
4 -66 8 -80 10 -22 4 -172 23 -295 39 -89 12 -512 67 -540 71 -135 19 -259 35
-274 35 -22 0 -21 -8 5 -144 69 -357 286 -655 633 -870 95 -58 311 -166 333
-166 8 0 18 -4 24 -9 14 -15 296 -106 429 -140 323 -80 706 -140 1130 -176
108 -9 123 -14 119 -33 -2 -9 -5 -153 -7 -320 -2 -166 -6 -305 -9 -307 -4 -5
-84 2 -243 20 -22 2 -112 11 -200 20 -198 19 -237 23 -299 31 -55 7 -55 15 -9
-111 51 -139 162 -335 238 -420 67 -77 136 -143 202 -195 74 -60 218 -151 267
-170 l28 -10 -6 -287 c-3 -157 -7 -287 -8 -289 -2 -1 -28 12 -58 30 -227 131
-575 238 -920 281 -25 3 -61 8 -80 10 -79 11 -323 31 -500 40 -267 14 -716 23
-1398 29 l-362 3 6 -21 c13 -43 94 -188 137 -243 45 -58 152 -171 198 -208
376 -307 901 -524 1669 -689 145 -31 440 -84 555 -100 187 -25 415 -53 510
-61 39 -4 86 -8 105 -10 19 -2 59 -5 88 -6 28 -1 52 -5 53 -8 4 -27 8 -162 13
-416 4 -165 9 -345 11 -400 2 -55 6 -172 10 -260 9 -286 16 -478 20 -559 25
-533 24 -1078 -1 -1326 -21 -212 -78 -468 -140 -624 -76 -191 -199 -409 -331
-583 -55 -75 -68 -86 -59 -55 2 9 8 55 11 102 4 47 9 96 10 110 2 14 6 54 9
90 4 36 9 85 11 110 4 44 10 102 20 198 2 26 7 70 9 97 3 28 8 79 11 115 4 36
11 106 16 155 5 50 12 115 14 145 3 30 8 73 10 95 2 22 7 69 11 105 l7 64 -34
-25 c-19 -14 -113 -81 -209 -149 -96 -68 -210 -148 -254 -179 -43 -31 -114
-81 -157 -111 -508 -355 -1049 -744 -1042 -749 4 -4 44 -16 88 -25 116 -26
294 -78 500 -146 387 -126 547 -165 770 -188 l65 -7 -51 -60 c-111 -130 -206
-235 -409 -449 -243 -257 -936 -943 -1320 -1306 -30 -29 -111 -107 -180 -173
-150 -146 -573 -553 -650 -627 -194 -185 -508 -489 -585 -565 -81 -82 -147
-152 -380 -405 -38 -41 -88 -95 -111 -120 -24 -25 -52 -56 -64 -70 -12 -14
-45 -50 -73 -80 -29 -30 -99 -107 -157 -170 -57 -63 -109 -120 -115 -126 -5
-6 -44 -48 -85 -94 -41 -46 -80 -88 -86 -94 -5 -6 -57 -63 -114 -126 -56 -63
-140 -155 -185 -205 -45 -49 -101 -112 -126 -140 -58 -65 -52 -59 -144 -160
-44 -48 -87 -96 -95 -105 -39 -44 -146 -164 -156 -174 -5 -6 -34 -38 -63 -71
-43 -48 -163 -181 -216 -239 -5 -6 -48 -54 -95 -106 -47 -52 -89 -100 -95
-106 -5 -6 -48 -53 -95 -104 -47 -51 -92 -101 -101 -111 -135 -156 -554 -594
-764 -799 -423 -414 -730 -632 -1010 -716 -79 -24 -108 -27 -230 -28 -170 -1
-253 19 -409 99 -207 104 -394 253 -691 550 -216 215 -293 297 -520 550 -44
50 -103 114 -130 143 l-51 54 -1 -174 c-1 -194 -12 -1126 -18 -1583 -2 -165
-7 -568 -10 -895 -4 -327 -8 -719 -10 -870 -2 -151 -7 -560 -10 -907 l-7 -633
133 -1 c74 -1 170 -2 214 -4 44 -1 251 -6 460 -10 209 -4 430 -8 490 -10 61
-2 277 -6 480 -10 204 -5 402 -9 440 -10 39 -2 84 -3 100 -4 l31 -1 -2 -142
c-1 -79 -5 -537 -9 -1018 -3 -481 -8 -1048 -10 -1260 -2 -212 -6 -718 -10
-1125 -3 -407 -7 -960 -10 -1230 -3 -269 -7 -807 -10 -1195 -3 -388 -7 -912
-10 -1165 -3 -253 -7 -779 -10 -1170 -3 -390 -7 -948 -10 -1240 -3 -291 -7
-818 -10 -1170 -6 -709 -12 -1469 -20 -2327 l-6 -568 288 -1 c158 -1 554 -2
878 -4 325 -2 1265 -6 2090 -9 3898 -15 4720 -19 4723 -21 2 -2 5 -857 7
-1902 2 -1044 4 -2065 4 -2268 l1 -371 233 -1 c219 -1 1351 -8 3032 -18 1199
-7 2464 -15 3390 -20 473 -3 1175 -7 1560 -10 385 -2 1175 -7 1755 -10 580 -3
1309 -8 1620 -10 311 -2 1128 -7 1815 -11 688 -4 1332 -7 1433 -8 101 -1 185
2 188 6 3 4 7 1046 10 2315 3 1269 7 2309 9 2311 5 5 472 9 2140 17 743 3
1580 8 1860 10 281 2 1129 7 1885 11 1388 7 2034 11 2058 13 13 1 12 199 -3
486 -6 120 -31 1070 -50 1895 -57 2515 -75 4086 -75 6535 0 1497 17 4664 25
4673 1 2 521 20 1156 40 l1153 37 6 25 c4 14 6 68 4 120 -1 52 -5 293 -9 535
-3 242 -8 544 -10 670 -2 127 -7 394 -10 595 -11 732 -16 1040 -20 1265 -2
127 -7 433 -11 680 -4 248 -8 506 -9 575 -2 69 -3 212 -4 318 l-1 193 -22 -12
c-45 -24 -137 -99 -208 -171 -95 -96 -176 -193 -355 -423 -245 -313 -362 -448
-495 -566 l-71 -63 -97 -13 c-117 -17 -483 -25 -567 -12 -117 17 -227 36 -253
43 -333 93 -569 229 -817 472 -93 91 -214 226 -300 334 -33 41 -62 77 -65 80
-3 3 -66 82 -141 175 -196 244 -249 301 -860 930 -81 82 -173 177 -205 211
-33 34 -172 178 -310 320 -138 142 -273 282 -300 310 -44 46 -251 260 -720
744 -159 164 -349 360 -611 630 -87 91 -223 230 -300 310 -78 80 -169 174
-203 210 -34 36 -175 181 -314 324 -138 142 -271 280 -296 306 -25 26 -160
166 -300 310 -140 144 -280 289 -311 321 -31 33 -175 182 -320 331 -145 150
-284 293 -309 318 -148 154 -535 554 -650 673 -74 76 -135 143 -135 149 0 6
65 36 145 68 80 31 251 98 380 149 129 51 326 129 438 173 l203 81 -28 29
c-155 165 -745 565 -1203 816 -36 19 -101 55 -145 79 -44 24 -122 64 -173 89
l-92 46 6 256 c3 142 7 786 9 1432 2 646 4 1180 4 1186 1 7 30 14 69 18 37 4
81 9 97 11 68 10 312 46 335 50 14 2 93 15 175 29 353 58 902 172 1190 246
661 171 999 410 1184 837 21 49 42 99 46 112 l7 24 -183 -7 c-101 -4 -224 -9
-274 -11 -49 -2 -171 -7 -270 -10 -375 -11 -493 -16 -595 -20 -58 -3 -163 -7
-235 -10 -71 -3 -159 -7 -195 -10 -36 -3 -99 -7 -140 -10 -41 -3 -95 -8 -120
-10 -25 -2 -74 -7 -110 -10 -207 -19 -509 -66 -645 -101 -33 -9 -69 -18 -80
-20 -23 -4 -124 -34 -210 -61 l-60 -19 -3 320 -2 321 47 32 c112 76 245 205
333 324 63 85 153 258 165 318 l7 34 -83 -7 c-119 -11 -168 -15 -214 -20 -22
-3 -80 -8 -130 -11 -49 -4 -100 -8 -112 -10 -22 -4 -23 -1 -24 93 0 53 -2 209
-4 345 -2 181 0 249 9 252 6 2 61 6 121 10 188 11 325 27 490 56 33 6 74 13
90 16 190 29 622 151 770 217 17 7 46 19 65 26 148 57 378 203 504 321 197
185 347 455 390 704 3 17 10 52 15 80 5 27 7 52 5 54 -2 2 -61 -4 -132 -13
-70 -10 -143 -20 -162 -22 -19 -2 -46 -6 -60 -9 -14 -2 -47 -7 -75 -10 -27 -3
-61 -8 -75 -10 -14 -3 -41 -7 -60 -10 -19 -2 -120 -16 -225 -30 -104 -14 -205
-28 -222 -31 -18 -2 -48 -6 -65 -8 -106 -14 -135 -18 -154 -21 -12 -2 -48 -7
-80 -11 -33 -4 -61 -9 -64 -9 -3 -1 -36 -5 -75 -10 -38 -5 -72 -9 -75 -10 -3
-1 -30 -5 -60 -9 -30 -4 -66 -9 -80 -11 -14 -2 -79 -11 -145 -20 -123 -17
-137 -18 -215 -30 -239 -35 -403 -55 -408 -51 -5 5 20 214 33 281 33 167 99
353 129 364 42 16 180 32 411 46 219 14 282 18 430 30 67 6 167 16 205 20 14
2 54 6 90 10 55 5 138 16 390 51 19 3 46 7 60 9 14 3 43 8 65 11 22 3 92 14
155 25 63 11 131 22 150 25 19 3 78 14 130 25 52 11 107 22 123 24 15 3 60 12
100 21 39 8 80 17 90 19 294 62 630 187 822 305 315 193 528 494 633 891 l10
36 -32 -2 c-17 -2 -74 -6 -126 -10 -52 -3 -117 -8 -145 -10 -91 -7 -229 -17
-277 -20 -26 -2 -87 -6 -135 -9 -49 -4 -122 -9 -163 -12 -41 -3 -100 -7 -130
-9 -30 -3 -91 -7 -135 -10 -44 -3 -107 -7 -140 -10 -33 -2 -96 -7 -140 -10
-44 -3 -107 -8 -140 -10 -33 -3 -96 -7 -140 -10 -44 -3 -105 -7 -135 -10 -30
-2 -93 -7 -140 -10 -47 -3 -114 -8 -150 -10 -36 -3 -96 -7 -135 -10 -38 -3
-101 -7 -140 -10 -38 -3 -99 -7 -135 -10 -36 -2 -99 -7 -140 -10 -41 -3 -106
-8 -143 -10 l-68 -5 55 77 c47 66 308 445 310 450 1 1 33 4 71 8 39 3 86 8
105 10 19 3 94 9 165 15 213 17 258 21 295 25 19 2 76 7 125 10 50 4 101 8
115 10 14 2 63 7 110 10 47 3 96 8 110 10 14 2 59 6 100 10 41 4 86 8 100 10
14 2 54 6 90 10 36 4 76 8 90 10 14 2 54 7 90 10 36 4 74 9 85 11 11 2 40 6
65 9 25 3 57 8 73 10 15 3 42 7 60 10 17 3 43 7 57 10 14 2 45 7 70 10 66 9
346 64 415 82 33 8 68 17 77 18 10 2 68 17 130 34 372 100 693 243 948 421
137 96 301 260 390 390 58 85 146 247 138 255 -22 22 -219 73 -348 89 -193 25
-766 26 -1010 2 -19 -2 -80 -7 -135 -11 -55 -3 -118 -8 -140 -10 -22 -3 -114
-12 -205 -20 -91 -9 -181 -17 -200 -20 -19 -2 -62 -7 -95 -10 -89 -9 -473 -53
-610 -71 -66 -8 -136 -17 -155 -19 -19 -3 -57 -7 -85 -10 -27 -3 -81 -10 -120
-15 -38 -5 -95 -12 -125 -16 -30 -3 -66 -8 -80 -9 -14 -2 -54 -6 -90 -10 -36
-4 -76 -8 -90 -11 -65 -9 -150 -14 -150 -8 0 12 82 168 110 211 70 104 101
138 185 208 132 109 348 170 670 190 50 3 122 7 160 10 39 2 133 7 210 11 77
3 163 8 190 9 28 2 104 7 170 10 66 3 136 8 155 10 19 2 77 7 129 10 52 4 102
8 112 10 10 2 60 7 111 11 51 3 95 8 98 9 3 2 41 6 85 10 44 4 82 9 85 10 3 2
35 6 70 10 36 3 76 8 90 10 14 3 57 9 95 14 83 12 100 15 275 41 195 30 345
57 510 91 177 37 165 34 220 49 25 7 55 14 67 16 59 11 331 98 431 138 459
185 759 455 856 771 11 33 22 71 27 85 4 14 10 38 14 53 l6 28 -108 -6 c-59
-3 -153 -8 -208 -10 -55 -3 -138 -8 -185 -10 -151 -8 -315 -16 -600 -30 -63
-3 -151 -7 -195 -10 -98 -6 -256 -14 -390 -20 -55 -3 -145 -7 -200 -10 -119
-7 -200 -11 -395 -20 -80 -4 -148 -9 -152 -12 -5 -2 -8 -1 -8 4 0 24 401 247
580 322 30 13 73 31 95 41 274 123 907 312 1330 396 11 2 65 13 120 24 55 11
111 22 125 25 14 3 36 7 50 10 14 2 41 7 60 10 19 3 58 10 85 15 28 5 64 12
80 14 17 3 84 14 150 25 66 11 185 29 265 41 80 12 156 23 170 25 36 6 89 13
230 30 182 23 187 23 275 35 44 5 105 12 135 16 30 3 109 12 175 19 66 8 149
17 185 20 36 3 76 8 90 10 14 2 59 6 100 10 41 3 109 10 150 15 41 5 109 12
150 15 41 4 86 8 100 10 14 2 57 6 95 10 79 7 149 13 215 20 118 12 150 15
210 20 89 8 166 15 310 30 48 5 104 10 210 20 36 3 81 8 100 10 19 2 64 7 100
10 36 4 76 8 90 10 14 2 58 7 98 10 41 4 82 8 92 10 10 2 51 6 92 10 40 3 84
8 98 10 14 2 50 7 80 10 351 38 975 131 1212 181 37 7 82 16 100 19 90 16 460
107 553 136 428 134 673 248 894 417 72 55 73 56 47 63 -15 4 -66 10 -114 14
-48 4 -98 8 -111 10 -164 27 -1738 26 -2161 0 -25 -2 -130 -6 -235 -10 -104
-4 -210 -9 -235 -10 -25 -2 -112 -6 -195 -9 -82 -4 -175 -9 -205 -11 -30 -2
-111 -7 -180 -10 -69 -4 -150 -8 -180 -10 -30 -2 -104 -7 -165 -10 -60 -3
-139 -8 -175 -10 -36 -2 -108 -7 -160 -10 -52 -3 -120 -8 -150 -10 -30 -2
-102 -7 -160 -10 -58 -3 -121 -8 -140 -10 -19 -2 -82 -7 -140 -11 -58 -3 -125
-7 -149 -9 -25 -2 -88 -6 -140 -10 -53 -4 -112 -8 -131 -10 -19 -2 -82 -6
-140 -10 -58 -3 -116 -8 -130 -10 -14 -2 -68 -7 -120 -10 -52 -4 -111 -8 -130
-10 -19 -2 -75 -7 -125 -10 -49 -3 -106 -8 -125 -10 -19 -2 -73 -7 -120 -10
-47 -3 -101 -8 -120 -10 -19 -3 -69 -7 -110 -10 -41 -3 -95 -8 -120 -10 -25
-2 -79 -7 -120 -10 -41 -3 -95 -8 -120 -11 -63 -6 -112 -11 -210 -19 -47 -4
-96 -9 -110 -10 -14 -1 -63 -6 -110 -9 -47 -4 -96 -9 -110 -11 -14 -2 -56 -6
-95 -10 -38 -3 -86 -8 -105 -10 -19 -2 -91 -9 -160 -15 -69 -6 -136 -13 -150
-15 -14 -2 -59 -6 -100 -10 -41 -4 -88 -9 -105 -10 -74 -9 -125 -14 -190 -20
-38 -4 -81 -8 -95 -10 -14 -2 -54 -6 -90 -10 -36 -3 -81 -8 -100 -10 -19 -2
-60 -7 -90 -10 -30 -3 -71 -7 -90 -10 -19 -2 -55 -7 -80 -9 -188 -21 -428 -48
-495 -56 -123 -16 -153 -20 -285 -35 -30 -4 -66 -8 -80 -10 -14 -2 -99 -13
-190 -25 -91 -11 -259 -34 -375 -51 -115 -16 -228 -32 -250 -35 -22 -3 -107
-17 -190 -30 -82 -14 -163 -27 -180 -30 -850 -137 -1646 -395 -2199 -712 -552
-316 -937 -693 -1293 -1264 -39 -63 -44 -67 -67 -58 -24 9 -31 2 -133 -128
-59 -75 -163 -206 -231 -292 -67 -85 -157 -199 -200 -253 -42 -54 -82 -104
-87 -110 -6 -7 -26 -32 -45 -57 -19 -25 -42 -54 -52 -65 -28 -35 -376 -475
-461 -585 -45 -58 -84 -107 -87 -110 -3 -3 -82 -102 -175 -220 -92 -118 -180
-228 -194 -244 -44 -48 -307 -162 -521 -225 -118 -34 -118 -34 -740 -56 -80
-3 -197 -7 -260 -10 -63 -2 -194 -7 -290 -10 -96 -3 -222 -8 -280 -10 -58 -3
-190 -7 -295 -10 -104 -3 -233 -8 -285 -10 -52 -2 -192 -7 -310 -11 l-216 -6
-53 138 c-30 77 -69 175 -87 219 -64 156 -192 461 -217 515 -14 30 -39 89 -57
130 -99 227 -316 694 -505 1085 -245 508 -369 796 -455 1058 -43 129 -95 332
-105 407 -3 25 -9 59 -11 75 -8 41 -7 241 0 290 19 123 64 264 137 420 15 33
45 98 66 145 160 345 248 690 280 1095 10 129 10 684 0 795 -25 272 -74 503
-162 766 -256 764 -807 1440 -1362 1670 -195 81 -384 100 -536 54 -40 -12 -83
-24 -97 -27 -48 -8 -576 -11 -635 -3 -33 4 -89 11 -125 14 -103 9 -273 36
-435 70 -443 91 -1092 359 -1545 639 -305 189 -458 332 -825 772 -87 105 -166
198 -175 208 -16 18 -18 16 -45 -40z"/>
<path d="M5205 44740 c-33 -5 -89 -11 -125 -14 -36 -4 -81 -8 -100 -11 -67 -9
-116 -14 -225 -26 -60 -6 -119 -12 -130 -14 -11 -2 -26 -4 -32 -4 -22 -2 -15
-23 41 -116 206 -342 551 -599 1096 -815 224 -88 702 -226 915 -263 17 -3 77
-15 135 -26 280 -56 653 -111 980 -146 30 -3 71 -8 90 -10 94 -11 361 -35 555
-50 44 -3 103 -8 130 -10 28 -2 93 -7 145 -10 52 -3 118 -7 145 -10 28 -2 104
-7 170 -10 66 -3 140 -8 165 -10 25 -2 108 -7 185 -10 77 -3 165 -8 195 -10
30 -2 109 -7 175 -10 66 -3 154 -8 195 -10 41 -2 122 -7 180 -10 58 -3 134 -7
170 -10 36 -2 102 -7 147 -11 l83 -5 -22 47 c-123 279 -401 588 -718 801 -317
212 -766 392 -1259 503 -74 17 -146 32 -160 35 -15 2 -69 13 -121 24 -52 10
-117 22 -144 26 -27 3 -52 8 -55 10 -3 1 -35 6 -71 10 -36 4 -67 8 -70 10 -3
1 -32 6 -65 9 -33 4 -71 9 -85 11 -55 10 -439 50 -575 60 -44 3 -109 7 -145
10 -187 13 -297 20 -520 30 -63 3 -153 7 -200 10 -47 2 -173 7 -280 10 -107 4
-235 8 -285 10 -231 10 -455 12 -510 5z"/>
<path d="M44979 44746 c-2 -2 -80 -6 -174 -10 -93 -4 -190 -8 -215 -11 -25 -2
-90 -6 -145 -10 -55 -3 -116 -8 -135 -10 -19 -2 -66 -6 -105 -10 -94 -8 -255
-25 -285 -30 -14 -2 -52 -6 -85 -10 -33 -3 -105 -13 -160 -21 -55 -8 -115 -17
-133 -19 -19 -2 -86 -14 -150 -25 -149 -26 -108 -18 -392 -76 -41 -9 -289 -70
-375 -94 -178 -48 -488 -156 -640 -223 -189 -83 -504 -254 -534 -291 -8 -9
-18 -16 -23 -16 -12 0 -115 -77 -203 -154 -80 -69 -160 -150 -214 -216 -20
-25 -41 -51 -48 -58 -45 -47 -193 -303 -193 -332 0 -8 17 -9 48 -6 26 3 110 8
187 11 77 3 169 8 205 10 36 2 126 7 200 10 74 4 167 8 205 10 39 2 133 6 210
10 77 3 167 8 200 10 33 2 119 7 190 10 72 3 150 8 175 10 25 3 88 7 140 10
52 3 120 7 150 10 30 2 93 7 140 10 47 3 101 8 120 10 19 2 78 7 130 11 52 3
97 7 100 9 3 2 50 6 105 10 55 4 102 8 105 10 3 2 39 6 80 9 122 11 597 73
610 81 3 2 34 6 70 10 36 4 67 8 70 10 3 2 26 6 50 10 35 5 294 56 414 80 275
58 692 187 931 289 180 77 290 135 477 249 82 51 230 170 313 252 101 100 181
202 249 317 41 70 43 78 26 83 -33 10 -104 22 -195 31 -33 3 -74 7 -91 9 -18
2 -83 7 -145 11 -63 3 -130 8 -149 11 -45 5 -1105 14 -1111 9z"/>
<path d="M43639 42846 c-2 -2 -85 -7 -184 -11 -99 -3 -196 -8 -215 -10 -19 -1
-78 -6 -130 -9 -52 -4 -113 -9 -135 -11 -22 -2 -69 -7 -105 -10 -36 -3 -90 -8
-120 -11 -71 -7 -447 -53 -480 -59 -26 -4 -124 -20 -195 -30 -22 -4 -130 -24
-240 -46 -110 -22 -211 -43 -225 -45 -39 -8 -363 -91 -422 -109 -87 -27 -292
-95 -313 -104 -11 -5 -69 -28 -130 -52 -142 -55 -406 -189 -516 -261 -224
-148 -393 -314 -502 -493 -39 -64 -101 -209 -112 -263 l-7 -33 54 5 c67 7 231
19 413 31 50 3 117 7 150 10 33 2 101 7 150 10 50 3 117 8 150 10 33 3 101 7
150 10 50 3 113 8 140 10 28 2 86 7 130 10 109 8 246 19 380 30 115 10 670 65
690 69 11 2 47 7 80 10 184 21 551 76 800 121 17 3 39 8 50 10 23 4 222 45
245 50 8 2 49 11 90 20 86 20 272 68 345 90 28 8 55 16 60 16 20 3 293 98 395
139 236 93 540 263 670 375 84 72 165 155 219 225 70 92 137 209 125 220 -15
13 -75 28 -159 40 -44 6 -90 13 -103 15 -13 2 -69 7 -125 10 -56 4 -113 9
-127 12 -28 5 -935 14 -941 9z"/>
<path d="M7097 42834 c-1 -1 -97 -5 -212 -8 -116 -4 -224 -8 -240 -10 -17 -3
-70 -7 -120 -10 -90 -7 -185 -16 -214 -21 -9 -2 -39 -6 -67 -10 -80 -11 -81
-13 -40 -94 167 -334 534 -590 1136 -794 339 -115 690 -200 1130 -276 228 -39
216 -37 430 -66 102 -14 196 -27 210 -30 14 -2 57 -7 95 -11 39 -3 77 -8 85
-9 8 -1 44 -6 80 -9 36 -4 81 -9 100 -11 39 -4 131 -14 200 -20 25 -3 65 -7
90 -9 25 -3 75 -8 113 -11 37 -3 95 -7 130 -10 127 -11 174 -14 267 -20 52 -3
111 -8 130 -10 19 -2 87 -7 150 -10 63 -3 135 -8 160 -10 72 -6 310 -21 490
-30 111 -6 176 -10 328 -20 50 -4 92 -4 92 0 0 13 -76 155 -117 218 -66 101
-125 172 -232 277 -326 323 -819 570 -1481 744 -92 24 -339 81 -390 90 -14 2
-74 13 -135 25 -148 28 -476 75 -595 86 -36 4 -72 8 -80 10 -8 2 -58 7 -110
10 -52 3 -102 8 -110 10 -8 2 -67 7 -130 10 -63 4 -131 8 -150 10 -136 12
-982 29 -993 19z"/>
<path d="M8359 41106 c-2 -2 -42 -6 -89 -10 -86 -6 -108 -9 -215 -27 -113 -19
-285 -74 -285 -92 0 -19 65 -124 126 -203 303 -392 968 -695 1963 -894 135
-27 264 -51 286 -55 22 -3 51 -7 65 -10 14 -2 39 -7 55 -10 41 -7 360 -53 410
-59 222 -27 299 -36 350 -41 33 -3 76 -8 95 -10 19 -2 64 -7 100 -10 36 -3 85
-7 110 -10 64 -6 153 -14 240 -20 41 -3 95 -8 120 -10 25 -2 92 -7 150 -10 58
-3 134 -8 170 -10 36 -3 121 -7 190 -10 69 -3 166 -7 215 -10 50 -2 173 -7
275 -10 102 -3 251 -8 333 -11 81 -2 147 -2 147 1 0 3 -22 50 -48 103 -197
399 -558 696 -1107 909 -196 76 -481 160 -667 197 -13 2 -54 11 -93 20 -74 16
-267 49 -375 65 -70 10 -259 39 -300 46 -14 2 -108 15 -210 30 -102 14 -201
28 -220 31 -19 3 -69 9 -110 14 -41 5 -95 12 -120 15 -147 18 -359 42 -450 50
-36 3 -83 8 -105 10 -22 2 -80 7 -130 11 -49 3 -108 8 -130 11 -49 5 -740 14
-746 9z"/>
<path d="M42207 41104 c-1 -1 -108 -4 -237 -8 -129 -4 -251 -8 -270 -10 -19
-3 -82 -7 -140 -11 -58 -3 -119 -7 -135 -9 -17 -2 -61 -7 -100 -10 -79 -8
-110 -11 -249 -27 -54 -6 -106 -12 -115 -14 -9 -1 -38 -6 -66 -9 -46 -6 -199
-30 -270 -42 -16 -3 -43 -7 -60 -10 -75 -12 -388 -77 -460 -96 -44 -11 -84
-21 -90 -22 -72 -18 -211 -59 -360 -106 -572 -183 -1016 -440 -1304 -754 -94
-101 -227 -300 -260 -388 l-10 -27 47 4 c26 2 108 6 182 10 74 4 151 8 170 10
19 2 87 6 150 10 63 4 131 8 150 10 19 2 82 6 140 10 58 3 121 8 140 10 19 2
69 7 110 10 41 3 95 8 120 10 25 3 79 7 120 10 41 3 91 8 110 10 19 2 69 7
110 10 41 4 86 8 100 10 14 2 61 6 105 10 44 3 91 8 105 10 14 2 54 6 90 10
73 7 396 43 450 50 19 3 105 14 190 25 235 30 233 30 410 56 91 14 181 27 200
30 19 3 46 7 60 9 14 3 43 7 65 11 22 3 78 12 125 20 47 8 99 16 115 19 17 3
39 7 51 10 12 3 39 7 60 11 21 3 104 19 184 35 720 148 1151 360 1398 689 53
70 162 268 162 294 0 12 -49 34 -97 42 -15 3 -30 7 -33 9 -6 4 -65 14 -170 30
-59 9 -102 13 -190 20 -47 4 -101 9 -120 11 -82 8 -676 24 -683 18z"/>
<path d="M9460 39121 c0 -54 156 -377 199 -411 3 -3 18 -21 33 -40 235 -311
687 -537 1339 -669 138 -29 453 -83 549 -95 25 -4 56 -8 70 -10 27 -5 235 -35
285 -41 17 -2 80 -11 140 -19 61 -8 135 -18 165 -21 30 -3 62 -8 70 -10 8 -2
47 -6 85 -10 39 -3 81 -7 95 -10 29 -5 444 -51 540 -60 36 -3 81 -7 100 -10
19 -2 60 -7 90 -9 30 -3 78 -8 105 -11 65 -6 370 -33 460 -41 39 -3 81 -7 95
-9 14 -2 68 -7 120 -10 52 -4 106 -8 120 -10 14 -2 68 -6 120 -10 52 -3 111
-7 130 -10 19 -2 78 -7 130 -10 52 -3 113 -8 135 -10 190 -18 218 -18 211 1
-16 42 -107 184 -181 282 -361 481 -953 809 -1780 987 -186 40 -440 83 -590
101 -33 3 -67 8 -75 9 -8 2 -46 6 -85 10 -38 4 -81 8 -95 10 -14 2 -59 7 -100
11 -107 9 -124 11 -225 18 -49 4 -110 9 -135 11 -25 3 -94 7 -155 10 -60 3
-139 8 -175 10 -36 2 -126 7 -200 10 -74 3 -175 8 -225 10 -49 2 -164 7 -255
10 -91 3 -205 8 -255 10 -49 2 -164 7 -255 10 -91 3 -192 8 -225 10 -33 2
-127 7 -210 10 -82 4 -153 9 -157 12 -5 2 -8 0 -8 -6z"/>
<path d="M41657 39124 c-1 -1 -65 -5 -142 -8 -77 -4 -180 -8 -230 -11 -124 -6
-546 -22 -1100 -40 -237 -8 -669 -31 -760 -40 -22 -2 -74 -7 -115 -10 -117 -9
-176 -15 -305 -31 -66 -8 -140 -17 -165 -20 -25 -3 -70 -9 -100 -14 -30 -5
-73 -12 -95 -16 -74 -11 -329 -65 -425 -90 -792 -208 -1340 -569 -1823 -1202
-5 -7 -8 -15 -5 -17 23 -24 724 -24 968 0 19 1 80 6 135 10 129 8 390 31 560
50 185 19 603 69 680 79 17 3 68 10 115 16 47 6 99 13 115 16 17 2 109 15 205
29 171 24 231 32 279 40 13 2 45 7 70 11 25 3 57 8 71 10 14 2 43 6 65 9 22 4
67 10 100 15 33 5 78 12 100 15 22 4 47 8 55 10 8 3 33 7 55 10 22 3 63 10 90
15 28 5 66 12 85 15 227 37 630 146 778 211 185 80 365 186 464 272 114 98
231 243 300 372 37 68 101 224 112 273 l7 28 -71 -3 c-39 -1 -72 -3 -73 -4z"/>
<path d="M11650 37151 c91 -303 292 -559 598 -762 84 -55 329 -185 417 -220
219 -89 457 -162 723 -223 114 -27 387 -79 475 -91 27 -3 59 -8 70 -11 31 -6
389 -51 467 -59 36 -3 81 -8 100 -10 70 -8 223 -21 345 -30 44 -3 109 -8 145
-10 103 -8 207 -14 315 -20 55 -3 141 -7 190 -10 50 -3 137 -7 195 -10 58 -3
150 -7 205 -10 55 -2 156 -7 225 -10 69 -3 150 -8 180 -10 30 -2 115 -7 188
-10 l133 -7 -22 44 c-54 107 -192 295 -308 419 -318 341 -776 593 -1356 744
-118 31 -263 65 -340 79 -101 19 -318 56 -364 61 -30 4 -63 9 -75 11 -27 5
-164 22 -241 29 -33 3 -76 8 -95 10 -19 2 -66 7 -105 10 -38 3 -90 8 -115 10
-82 8 -191 16 -415 30 -176 11 -263 16 -565 30 -63 3 -153 7 -200 10 -47 2
-141 7 -210 10 -69 3 -150 8 -180 10 -30 2 -113 7 -185 10 -71 4 -146 8 -166
10 -36 3 -37 2 -29 -24z"/>
<path d="M39477 37174 c-1 -1 -74 -5 -162 -9 -88 -4 -185 -8 -215 -10 -30 -2
-125 -6 -210 -9 -85 -4 -193 -9 -240 -11 -47 -3 -134 -8 -195 -10 -60 -3 -141
-7 -180 -10 -38 -2 -124 -7 -190 -10 -66 -4 -131 -8 -145 -10 -14 -2 -74 -6
-135 -10 -60 -3 -121 -8 -135 -10 -14 -3 -65 -7 -115 -10 -49 -4 -97 -8 -105
-10 -8 -2 -46 -7 -85 -10 -38 -3 -81 -7 -95 -10 -14 -2 -50 -7 -80 -10 -121
-13 -448 -66 -592 -96 -485 -99 -891 -247 -1195 -435 -120 -74 -126 -78 -256
-184 -124 -100 -204 -181 -292 -294 -16 -22 -39 -51 -51 -65 -31 -39 -101
-153 -144 -237 l-40 -74 48 4 c26 3 97 7 157 11 61 3 146 8 190 10 44 3 136 7
205 10 406 17 835 39 1000 50 41 3 109 7 150 10 41 3 100 7 130 10 30 2 89 7
130 10 41 3 91 8 110 10 19 3 64 7 100 10 78 7 133 13 180 20 19 2 60 7 90 10
74 8 306 43 405 60 44 8 96 17 115 20 181 30 498 111 709 181 601 201 1017
516 1193 902 32 70 78 191 78 205 0 6 -126 7 -133 1z"/>
</g>
</svg>
